<?xml version="1.0" encoding="UTF-8" standalone="no"?>
<!-- Generator: Adobe Illustrator 19.0.0, SVG Export Plug-In . SVG Version: 6.00 Build 0)  -->

<svg
   xmlns:dc="http://purl.org/dc/elements/1.1/"
   xmlns:cc="http://creativecommons.org/ns#"
   xmlns:rdf="http://www.w3.org/1999/02/22-rdf-syntax-ns#"
   xmlns:svg="http://www.w3.org/2000/svg"
   xmlns="http://www.w3.org/2000/svg"
   xmlns:sodipodi="http://sodipodi.sourceforge.net/DTD/sodipodi-0.dtd"
   xmlns:inkscape="http://www.inkscape.org/namespaces/inkscape"
   version="1.1"
   id="Layer_1"
   x="0px"
   y="0px"
   viewBox="0 0 278.567 278.567"
   style="enable-background:new 0 0 278.567 278.567;"
   xml:space="preserve"
   sodipodi:docname="telephone-svgrepo-com.svg"
   inkscape:version="0.92.4 (5da689c313, 2019-01-14)"><metadata
   id="metadata43"><rdf:RDF><cc:Work
       rdf:about=""><dc:format>image/svg+xml</dc:format><dc:type
         rdf:resource="http://purl.org/dc/dcmitype/StillImage" /></cc:Work></rdf:RDF></metadata><defs
   id="defs41" /><sodipodi:namedview
   pagecolor="#ffffff"
   bordercolor="#666666"
   borderopacity="1"
   objecttolerance="10"
   gridtolerance="10"
   guidetolerance="10"
   inkscape:pageopacity="0"
   inkscape:pageshadow="2"
   inkscape:window-width="640"
   inkscape:window-height="480"
   id="namedview39"
   showgrid="false"
   inkscape:zoom="0.847193"
   inkscape:cx="139.28349"
   inkscape:cy="139.28349"
   inkscape:window-x="0"
   inkscape:window-y="0"
   inkscape:window-maximized="0"
   inkscape:current-layer="Layer_1" />
<g
   id="g6"
   style="fill:#999999">
	<g
   id="g4"
   style="fill:#999999">
		<path
   d="M271.245,212.376l-42.426-42.426c-9.747-9.748-25.608-9.747-35.355,0l-5.604,5.604c-4.33,4.33-10.086,6.715-16.21,6.715    c-6.124,0-11.88-2.385-16.21-6.715l-52.432-52.433c-4.33-4.33-6.715-10.086-6.715-16.21c0-6.124,2.385-11.88,6.715-16.21    l5.604-5.604c9.748-9.747,9.748-25.608,0-35.355L66.184,7.316c-9.747-9.748-25.608-9.748-35.355,0    C-5.013,43.157-10.218,99.511,18.451,141.312C50.52,188.071,90.49,228.04,137.248,260.109    c18.063,12.389,38.839,18.453,59.508,18.452c27.162-0.001,54.135-10.476,74.488-30.829c4.722-4.722,7.323-11,7.323-17.678    S275.967,217.098,271.245,212.376z M43.557,20.042c1.322-1.321,3.08-2.049,4.95-2.049s3.628,0.728,4.95,2.05l42.426,42.426    c1.322,1.322,2.05,3.08,2.05,4.95s-0.728,3.627-2.05,4.95l-2.525,2.525l-52.27-52.27C41.893,21.751,42.712,20.888,43.557,20.042z     M147.429,245.265c-44.923-30.811-83.323-69.211-114.134-114.134c-19.572-28.537-20.084-65.246-3.069-93.912l52.046,52.046    c-2.603,5.44-3.981,11.437-3.981,17.646c0,10.932,4.257,21.209,11.987,28.938l52.432,52.432    c7.73,7.73,18.007,11.987,28.938,11.987c6.209,0,12.206-1.377,17.646-3.981l52.047,52.047    C212.676,265.349,175.967,264.838,147.429,245.265z M258.517,235.003c-0.846,0.846-1.709,1.665-2.581,2.469l-52.27-52.27    l2.525-2.525c1.322-1.322,3.08-2.05,4.95-2.05s3.628,0.728,4.95,2.05l42.426,42.426    C261.246,227.832,261.246,232.274,258.517,235.003z"
   id="path2"
   style="fill:#999999" />
	</g>
</g>
<g
   id="g8">
</g>
<g
   id="g10">
</g>
<g
   id="g12">
</g>
<g
   id="g14">
</g>
<g
   id="g16">
</g>
<g
   id="g18">
</g>
<g
   id="g20">
</g>
<g
   id="g22">
</g>
<g
   id="g24">
</g>
<g
   id="g26">
</g>
<g
   id="g28">
</g>
<g
   id="g30">
</g>
<g
   id="g32">
</g>
<g
   id="g34">
</g>
<g
   id="g36">
</g>
</svg>